<?xml version="1.0" encoding="utf-8"?>
<!-- Generator: Adobe Illustrator 23.0.3, SVG Export Plug-In . SVG Version: 6.00 Build 0)  -->
<svg version="1.1" id="Layer_1" xmlns="http://www.w3.org/2000/svg" xmlns:xlink="http://www.w3.org/1999/xlink" x="0px" y="0px"
	 viewBox="0 0 512 512" style="enable-background:new 0 0 512 512;" xml:space="preserve">
<style type="text/css">
	.st0{fill:#020202;}
	.st1{fill:#FFFFFF;}
	.st2{fill:url(#SVGID_1_);}
	.st3{fill:url(#SVGID_2_);}
	.st4{fill:url(#SVGID_3_);}
	.st5{fill:url(#SVGID_4_);}
	.st6{fill:url(#SVGID_5_);}
	.st7{fill:url(#SVGID_6_);}
	.st8{fill:url(#SVGID_7_);}
	.st9{fill:url(#SVGID_8_);}
	.st10{fill:url(#SVGID_9_);}
	.st11{fill:url(#SVGID_10_);}
	.st12{fill:url(#SVGID_11_);}
	.st13{fill:url(#SVGID_12_);}
	.st14{fill:url(#SVGID_13_);}
	.st15{fill:url(#SVGID_14_);}
	.st16{fill:url(#SVGID_15_);}
	.st17{fill:url(#SVGID_16_);}
	.st18{fill:#1B83B8;}
	.st19{fill:url(#SVGID_17_);}
	.st20{fill:url(#SVGID_18_);}
	.st21{fill:url(#SVGID_19_);}
	.st22{fill:url(#SVGID_20_);}
	.st23{fill:url(#SVGID_21_);}
	.st24{fill:url(#SVGID_22_);}
	.st25{fill:url(#SVGID_23_);}
	.st26{fill:url(#SVGID_24_);}
	.st27{fill:url(#SVGID_25_);}
	.st28{fill:url(#SVGID_26_);}
	.st29{fill:url(#SVGID_27_);}
	.st30{fill:url(#SVGID_28_);}
	.st31{fill:url(#SVGID_29_);}
	.st32{fill:url(#SVGID_30_);}
	.st33{fill:url(#SVGID_31_);}
	.st34{fill:url(#SVGID_32_);}
	.st35{fill:url(#SVGID_33_);}
	.st36{fill:url(#SVGID_34_);}
	.st37{fill:url(#SVGID_35_);}
	.st38{fill:url(#SVGID_36_);}
	.st39{fill:url(#SVGID_37_);}
	.st40{fill:url(#SVGID_38_);}
	.st41{fill:url(#SVGID_39_);}
	.st42{fill:url(#SVGID_40_);}
	.st43{fill:url(#SVGID_41_);}
	.st44{fill:url(#SVGID_42_);}
	.st45{fill:url(#SVGID_43_);}
	.st46{fill:url(#SVGID_44_);}
	.st47{fill:url(#SVGID_45_);}
	.st48{fill:url(#SVGID_46_);}
	.st49{fill:url(#SVGID_47_);}
	.st50{fill:url(#SVGID_48_);}
	.st51{fill:url(#SVGID_49_);}
	.st52{fill:url(#SVGID_50_);}
	.st53{fill:url(#SVGID_51_);}
	.st54{fill:url(#SVGID_52_);}
	.st55{fill:url(#SVGID_53_);}
	.st56{fill:url(#SVGID_54_);}
	.st57{fill:url(#SVGID_55_);}
	.st58{fill:url(#SVGID_56_);}
	.st59{fill:url(#SVGID_57_);}
	.st60{fill:url(#SVGID_58_);}
	.st61{fill:url(#SVGID_59_);}
	.st62{fill:url(#SVGID_60_);}
	.st63{fill:url(#SVGID_61_);}
	.st64{fill:url(#SVGID_62_);}
	.st65{fill:url(#SVGID_63_);}
	.st66{fill:url(#SVGID_64_);}
	.st67{fill:url(#SVGID_65_);}
	.st68{fill:url(#SVGID_66_);}
	.st69{fill:url(#SVGID_67_);}
	.st70{fill:url(#SVGID_68_);}
	.st71{fill:url(#SVGID_69_);}
	.st72{fill:url(#SVGID_70_);}
	.st73{fill:url(#SVGID_71_);}
	.st74{fill:url(#SVGID_72_);}
	.st75{fill:url(#SVGID_73_);}
	.st76{fill:url(#SVGID_74_);}
	.st77{fill:url(#SVGID_75_);}
	.st78{fill:url(#SVGID_76_);}
	.st79{fill:url(#SVGID_77_);}
	.st80{fill:url(#SVGID_78_);}
	.st81{fill:url(#SVGID_79_);}
	.st82{fill:url(#SVGID_80_);}
	.st83{fill:url(#SVGID_81_);}
	.st84{fill:url(#SVGID_82_);}
	.st85{fill:url(#SVGID_83_);}
	.st86{fill:url(#SVGID_84_);}
	.st87{fill:url(#SVGID_85_);}
	.st88{fill:url(#SVGID_86_);}
	.st89{fill:url(#SVGID_87_);}
	.st90{fill:url(#SVGID_88_);}
	.st91{fill:url(#SVGID_89_);}
	.st92{fill:url(#SVGID_90_);}
	.st93{fill:url(#SVGID_91_);}
	.st94{fill:url(#SVGID_92_);}
	.st95{fill:url(#SVGID_93_);}
	.st96{fill:url(#SVGID_94_);}
	.st97{fill:url(#SVGID_95_);}
	.st98{fill:url(#SVGID_96_);}
	.st99{fill:url(#SVGID_97_);}
	.st100{fill:url(#SVGID_98_);}
	.st101{fill:url(#SVGID_99_);}
	.st102{fill:url(#SVGID_100_);}
	.st103{fill:url(#SVGID_101_);}
	.st104{fill:url(#SVGID_102_);}
	.st105{fill:url(#SVGID_103_);}
	.st106{fill:url(#SVGID_104_);}
	.st107{fill:url(#SVGID_105_);}
	.st108{fill:url(#SVGID_106_);}
	.st109{fill:url(#SVGID_107_);}
	.st110{fill:url(#SVGID_108_);}
	.st111{fill:url(#SVGID_109_);}
	.st112{fill:url(#SVGID_110_);}
	.st113{fill:url(#SVGID_111_);}
	.st114{fill:url(#SVGID_112_);}
	.st115{fill:url(#SVGID_113_);}
	.st116{fill:url(#SVGID_114_);}
	.st117{fill:url(#SVGID_115_);}
	.st118{fill:url(#SVGID_116_);}
	.st119{fill:url(#SVGID_117_);}
	.st120{fill:url(#SVGID_118_);}
	.st121{fill:url(#SVGID_119_);}
	.st122{fill:url(#SVGID_120_);}
	.st123{fill:url(#SVGID_121_);}
	.st124{fill:#B71C46;}
	.st125{fill:#8D47C4;}
	.st126{fill:#20B9CB;}
	.st127{fill:#85CA55;}
	.st128{fill:#BB1E49;}
	.st129{fill:#319517;}
	.st130{fill:#621946;}
	.st131{fill:#891789;}
	.st132{fill:#641D49;}
	.st133{fill:#F17600;}
	.st134{fill:#040404;}
	.st135{fill:#030303;}
	.st136{fill:#050505;}
	.st137{fill:#0B0B0B;}
	.st138{fill:#0A0A0A;}
	.st139{fill:#080808;}
	.st140{fill:#070707;}
	.st141{fill:#060606;}
	.st142{fill:#0E0E0E;}
	.st143{fill:#0D0D0D;}
	.st144{fill:#0C0C0C;}
	.st145{fill:#121212;}
	.st146{fill:#1C1C1C;}
	.st147{fill:#141414;}
	.st148{fill:#0F0F0F;}
	.st149{fill:#111111;}
	.st150{fill:#161616;}
	.st151{fill:#191919;}
	.st152{fill:#171717;}
	.st153{fill:#101010;}
	.st154{fill:#090909;}
</style>
<linearGradient id="SVGID_1_" gradientUnits="userSpaceOnUse" x1="133.9676" y1="466.8623" x2="378.0324" y2="44.1296">
	<stop  offset="0" style="stop-color:#032D83"/>
	<stop  offset="1" style="stop-color:#DF6E99"/>
</linearGradient>
<circle class="st2" cx="256" cy="255.5" r="244"/>
<g>
	<path class="st1" d="M142,272c0-41.5,0-83,0-124.5c0-15.4,3.2-18.5,18.9-18.6c7.8,0,15.6,0.3,23.4-0.1c5.9-0.3,7.7,1.8,7.8,7.7
		c0.1,6.3-2.4,7.9-8,7.2c-0.4-0.1-0.8,0-1.2,0c-26.1,0.6-26.1,0.6-26.1,27.3c0,72.7,0.1,145.5-0.2,218.2c0,9.1,1.5,12.6,11.8,12.5
		c58.8-0.6,117.5-0.5,176.3-0.1c8.9,0.1,10.8-2.7,10.7-11c-0.3-78.9-0.3-157.8,0-236.7c0-7.8-1.5-11.4-10.1-10.3
		c-5.7,0.7-11.5,0.1-17.2,0.1c-4.5,0-8.9,0.9-8.8-6.4c0.1-6.2,1.5-9,8.3-8.5c9,0.5,18.1,0.1,27.1,0.2c9.9,0.1,15.4,4.7,15.4,15
		c0,85.9,0,171.8,0,257.7c0,9.6-4.9,14.6-14.4,14.6c-66.6,0.1-133.1,0.1-199.7,0c-11.3,0-14.2-7-14.1-17.2
		C142.1,356.7,142,314.3,142,272z"/>
	<path class="st1" d="M286.9,372.5c-13.6,0-27.1-0.1-40.7,0.1c-5.2,0.1-9-0.9-9.2-6.9c-0.2-6.6,3.7-8.1,9.6-8
		c26.3,0.2,52.6,0.1,78.9,0c5.4,0,9.7,0.4,9.7,7.7c0,7.6-4.9,7.2-10,7.2C312.3,372.5,299.6,372.5,286.9,372.5z"/>
	<path class="st1" d="M285.4,276.3c-13.1,0-26.3-0.1-39.4,0.1c-5.3,0.1-8.9-1.2-9-7.2c-0.1-5.7,2.9-7.9,8.5-7.8
		c27.1,0.1,54.2,0.1,81.3,0c5.6,0,8.2,2,8.2,7.9c0,6.6-4,7-8.9,7C312.6,276.2,299,276.3,285.4,276.3z"/>
	<path class="st1" d="M285.8,244.2c-13.1,0-26.3-0.1-39.4,0.1c-5.1,0.1-9.1-0.6-9.4-6.8c-0.3-6.5,3.5-8.3,9.4-8.2
		c26.7,0.1,53.4,0.1,80.1,0c5.4,0,8.5,1.5,8.6,7.6c0.1,6.4-3.3,7.4-8.6,7.4C312.9,244.1,299.4,244.2,285.8,244.2z"/>
	<path class="st1" d="M284.5,212.2c-12.7,0-25.5-0.1-38.2,0.1c-5.2,0.1-9-0.9-9.3-6.9c-0.3-6.6,3.6-8.2,9.5-8.1
		c26.7,0.1,53.4,0.1,80.1,0c5.4,0,8.5,1.5,8.5,7.6c0,6.4-3.5,7.3-8.7,7.3C312.4,212.1,298.4,212.2,284.5,212.2z"/>
	<path class="st1" d="M285.5,308.3c-12.7,0-25.5-0.1-38.2,0.1c-5.2,0.1-10.2,0.1-10.3-7c-0.1-6.6,3.9-8,9.7-7.9
		c26.3,0.2,52.6,0.2,78.9,0.1c5.6,0,9.6,0.7,9.5,7.8c-0.1,7.7-5.1,7-10.1,7C311.8,308.3,298.6,308.3,285.5,308.3z"/>
	<path class="st1" d="M285.8,340.4c-13.1,0-26.3-0.1-39.4,0.1c-5.1,0.1-9.2-0.7-9.3-6.8c-0.2-6.5,3.5-8.2,9.5-8.1
		c26.3,0.2,52.6,0.1,78.8,0.1c5.3,0,9.8,0.3,9.8,7.6c0,7.5-4.7,7.3-9.9,7.3C312,340.4,298.9,340.4,285.8,340.4z"/>
	<path class="st1" d="M306.7,128.3c-0.1-10.6-5.1-16.4-16-15.2c-7.5,0.8-11.4-2.2-15.8-8.2c-9.7-13.5-29-13.6-38.8,0
		c-4.8,6.7-9.7,8.6-17.1,8.2c-10.3-0.6-15,4.8-14.9,14.9c0.1,9.4,0.2,18.8,0,28.3c-0.3,10.9,5.2,15.8,15.7,15.8
		c11.9,0,23.8,0,35.6,0c0,0,0,0.1,0,0.1c11.9,0,23.8,0,35.6,0c10.5,0,16-5.1,16-15.7C307.1,147.1,306.8,137.7,306.7,128.3z
		 M255.3,109.9c5.9-0.1,9.7,3.8,10.6,9.6c-0.5,6.5-3.6,10.6-9.8,11c-6.3,0.5-10.3-3.1-10.8-9.3C244.8,114.5,248.6,109.9,255.3,109.9
		z M271.5,157.3c-5.3,0-10.7,0-16,0c-9.4,0-18.9-0.4-28.3,0.1c-6.6,0.4-8.9-2-8.2-8.4c0.4-4.5-0.2-9,0.2-13.5
		c0.2-2.8-2.1-7.3,3.2-7.8c3.9-0.4,7.6-0.8,10.9,3.3c15.9,19.9,27.9,19.8,44.9-0.3c3.5-4.1,7.3-3.4,11-2.9c4.9,0.5,3.1,5,3.3,7.9
		C293.5,157.4,293.4,157.4,271.5,157.3z"/>
	<path class="st1" d="M216.6,285.8c-0.3-26.5,3.6-23.8-23.4-23.7c-27.5,0.1-23.2-3.4-23.4,23.4c-0.2,23.4,0,23.5,23.1,23.4
		C220.7,308.8,216.2,312.1,216.6,285.8z M192.9,293.9c-7.1,1.6-9.2-1.1-9.2-8.2c0-7.1,1.3-10.1,9.3-9.7c6.6,0.3,9.2,1.5,9.1,8.7
		C201.9,291.7,200.9,296,192.9,293.9z"/>
	<path class="st1" d="M193.3,197.4c-23.6-0.1-23.6,0-23.6,23.3c0,23.6,0,23.6,23.1,23.6c27.4-0.4,23.7,4,23.7-23.1
		C216.6,194.2,220,197.5,193.3,197.4z M202,220c-0.4,6.1,0.1,10.7-8.7,10.3c-7.2-0.3-10.1-1.6-9.6-9.5c0.4-6.4,1-10.5,8.5-8.5
		C198.4,211.3,202.5,212,202,220z"/>
	<path class="st1" d="M216.6,352.1c0.3-24.7,0.1-24.7-24.5-24.7c-22.4,0-22.4,0-22.4,22.9c0.4,26.5-4.4,23.8,24.3,24
		C221,374.6,216.4,374.8,216.6,352.1z M192.4,359.8c-7.1-0.2-10-2.1-8.2-8.5c-0.9-6.8-0.4-10.8,7.8-10.5c7,0.3,10.2,1.1,10,9.3
		C201.9,357.4,200.2,360,192.4,359.8z"/>
</g>
</svg>
