<?xml version="1.0" standalone="no"?>
<!DOCTYPE svg PUBLIC "-//W3C//DTD SVG 20010904//EN"
 "http://www.w3.org/TR/2001/REC-SVG-20010904/DTD/svg10.dtd">
<svg version="1.0" xmlns="http://www.w3.org/2000/svg"
 width="900.000000pt" height="400.000000pt" viewBox="0 0 900.000000 400.000000"
 preserveAspectRatio="xMidYMid meet">

<g transform="translate(0.000000,400.000000) scale(0.100000,-0.100000)"
fill="#000000" stroke="none">
<path d="M6904 3968 c3 -18 9 -53 13 -78 3 -25 13 -55 21 -67 9 -14 12 -33 8
-49 -7 -28 2 -96 13 -90 3 2 7 -12 8 -32 5 -88 16 -152 24 -152 5 0 10 6 10
13 5 39 17 -105 18 -200 1 -93 4 -113 16 -113 13 0 15 -20 15 -120 0 -73 4
-120 10 -120 6 0 10 -18 10 -40 0 -22 -4 -40 -8 -40 -11 0 -13 -313 -3 -320 5
-3 12 -76 16 -162 7 -142 6 -158 -9 -158 -9 0 -16 -8 -16 -20 0 -11 7 -20 15
-20 9 0 15 -9 15 -21 0 -13 8 -23 23 -27 22 -6 22 -6 -3 -13 -23 -6 -23 -7 -3
-8 31 -1 42 -27 31 -70 -17 -61 -26 -188 -28 -361 -1 -240 -20 -182 -27 86 -4
153 -9 212 -17 204 -7 -7 -12 -90 -15 -223 -4 -219 -18 -251 -20 -45 -1 64 -5
119 -9 122 -4 2 -8 -5 -8 -17 -2 -164 -4 -186 -20 -180 -11 4 -14 13 -9 32 4
19 3 22 -5 11 -5 -8 -10 -24 -10 -34 0 -11 -8 -28 -17 -39 -13 -13 -18 -38
-20 -83 -1 -41 -7 -74 -17 -90 -9 -13 -16 -30 -15 -37 4 -29 -2 -42 -11 -22
-8 19 -9 19 -9 -2 -1 -15 5 -23 15 -23 11 0 14 -5 9 -17 -18 -45 -23 -73 -13
-67 8 5 9 1 4 -12 -13 -33 -12 -37 14 -45 24 -8 24 -9 -3 -5 -15 2 -30 -1 -33
-5 -3 -5 -14 -9 -25 -9 -10 0 -19 -4 -19 -10 0 -5 4 -10 9 -10 17 0 33 -88 28
-166 -10 -208 -40 -565 -50 -617 l-12 -59 -95 6 c-52 3 -107 6 -122 6 -16 1
-28 5 -28 10 0 6 4 10 8 10 5 0 9 6 9 13 0 6 12 58 27 114 31 121 33 143 6 84
-11 -24 -20 -50 -20 -58 0 -7 -11 -25 -24 -38 -14 -14 -30 -33 -35 -42 -6 -10
-11 -13 -11 -6 0 10 90 295 165 518 12 39 26 90 30 115 4 25 9 54 12 65 2 11
6 34 8 50 3 17 10 64 17 105 13 77 17 501 6 655 -6 77 -7 80 -31 83 -25 3 -26
2 -16 -30 5 -18 13 -166 18 -328 8 -248 7 -308 -5 -374 -9 -44 -13 -88 -11
-98 3 -10 1 -21 -4 -24 -5 -3 -7 -10 -3 -15 3 -5 1 -15 -4 -22 -5 -7 -24 -57
-42 -112 -27 -81 -91 -237 -170 -410 -64 -142 -92 -200 -109 -224 -12 -16 -18
-31 -14 -34 5 -2 2 -2 -4 -1 -7 2 -21 0 -30 -3 -12 -5 -3 -12 33 -25 l49 -18
-50 6 c-27 3 -58 10 -69 16 -12 7 -22 6 -28 0 -11 -11 23 -34 52 -37 8 -1 33
-5 55 -9 32 -6 36 -9 22 -17 -9 -6 -17 -14 -17 -18 0 -13 61 -77 92 -96 25
-16 27 -15 37 4 6 11 11 29 11 40 0 36 37 51 127 51 114 0 107 8 175 -212 l11
-38 475 0 c407 0 473 2 469 14 -11 29 -19 136 -13 170 8 41 49 94 83 107 l23
9 -39 40 c-44 46 -78 110 -87 169 -5 29 -3 41 6 41 8 0 11 17 9 57 -5 95 20
166 80 230 19 21 28 41 26 54 -3 17 -2 19 10 9 12 -10 29 1 95 60 44 40 78 76
75 80 -2 4 6 6 19 5 20 -3 24 1 21 21 -1 13 2 21 6 18 5 -3 18 10 29 28 17 28
19 43 14 101 -4 45 -3 67 4 67 6 0 13 -27 15 -62 2 -35 4 40 5 166 1 126 4
227 6 225 2 -2 8 -105 11 -229 4 -124 11 -229 16 -234 5 -6 9 0 9 15 1 21 2
22 11 7 5 -10 17 -18 24 -18 8 0 15 -7 15 -16 0 -23 -20 -55 -31 -49 -5 4 -9
2 -9 -3 0 -5 -13 -12 -30 -15 -32 -7 -45 -17 -118 -88 -70 -70 -107 -113 -108
-126 -1 -7 -2 -22 -2 -34 -1 -12 -6 -17 -14 -13 -6 4 -8 3 -4 -4 3 -6 -2 -15
-11 -21 -12 -7 -14 -10 -4 -11 7 0 24 11 37 25 13 14 27 25 32 25 5 0 15 7 22
15 14 17 20 18 39 6 11 -7 11 -13 -3 -32 -20 -30 -21 -59 -1 -59 17 0 65 -28
77 -45 21 -29 8 -43 -43 -47 -32 -2 -54 2 -61 9 -6 7 -14 11 -18 8 -5 -3 -12
0 -16 6 -4 8 -9 7 -16 -2 -7 -10 -8 -5 -4 13 5 23 3 28 -12 28 -10 0 -24 -6
-31 -12 -10 -10 -15 -10 -18 -2 -2 7 -13 10 -23 7 -15 -4 -18 -11 -14 -29 7
-28 -10 -32 -25 -6 -9 15 -10 15 -11 1 0 -9 -13 -35 -30 -57 -34 -48 -36 -52
-15 -52 9 0 19 -10 24 -22 7 -20 8 -19 16 13 6 26 9 29 12 14 3 -11 9 -24 13
-28 4 -5 6 -26 3 -47 -3 -22 -1 -40 6 -44 6 -4 11 -14 11 -23 0 -9 14 -38 31
-65 16 -28 28 -53 25 -56 -3 -3 -18 1 -33 9 -16 7 -32 15 -37 17 -17 8 33 -37
53 -47 20 -11 19 -12 -12 -63 -29 -46 -32 -61 -35 -140 l-4 -88 576 0 576 0 0
2000 0 2000 -1051 0 -1051 0 6 -32z m1521 -1118 c15 -6 23 -15 19 -21 -4 -8
-9 -8 -17 0 -6 6 -19 11 -28 11 -10 0 -21 5 -24 10 -8 13 16 13 50 0z m-293
-42 c-11 -11 -39 0 -45 17 -4 10 0 10 24 2 16 -6 25 -15 21 -19z m-68 6 c3 -8
2 -12 -4 -9 -6 3 -10 10 -10 16 0 14 7 11 14 -7z m352 6 c7 -7 7 -26 1 -59 -7
-33 -6 -250 3 -670 7 -342 10 -624 7 -628 -4 -3 -7 47 -8 113 0 65 -9 349 -18
629 l-18 510 -2 -315 c-2 -173 -4 -310 -6 -305 -2 6 -7 51 -11 100 -7 85 -8
88 -16 50 -6 -22 -8 -110 -5 -195 2 -86 1 -135 -3 -110 -4 25 -11 222 -15 438
-7 334 -6 393 6 390 8 -2 14 5 14 17 1 11 4 26 8 33 10 15 49 16 63 2z m-213
-570 c4 -359 -1 -390 -12 -70 -1 28 -4 40 -10 32 -4 -7 -11 101 -14 240 -4
162 -3 256 3 262 6 6 11 21 11 36 1 14 5 6 9 -20 5 -25 10 -241 13 -480z m-86
488 c-3 -8 -6 -5 -6 6 -1 11 2 17 5 13 3 -3 4 -12 1 -19z m-20 -30 c-3 -8 -6
-5 -6 6 -1 11 2 17 5 13 3 -3 4 -12 1 -19z m46 -548 c4 -340 3 -410 -2 -235
-16 484 -20 800 -11 760 4 -22 10 -258 13 -525z m-36 283 c-2 -38 -3 -7 -3 67
0 74 1 105 3 68 2 -38 2 -98 0 -135z m10 -245 c-2 -18 -4 -4 -4 32 0 36 2 50
4 33 2 -18 2 -48 0 -65z m-940 -150 c-3 -8 -6 -5 -6 6 -1 11 2 17 5 13 3 -3 4
-12 1 -19z m-26 -12 c-7 -8 -9 -21 -5 -27 4 -8 3 -9 -4 -5 -8 5 -10 -2 -6 -22
4 -19 1 -32 -6 -37 -10 -6 -12 3 -8 38 5 44 25 84 36 72 3 -2 -1 -11 -7 -19z
m72 -199 c14 3 30 -3 41 -16 18 -20 18 -22 1 -41 -16 -18 -16 -20 -2 -20 13 0
17 -10 17 -45 l0 -45 -39 0 c-38 0 -38 0 -45 46 -6 50 -6 173 1 138 3 -16 10
-20 26 -17z m842 -319 c4 -21 13 -94 14 -125 1 -7 5 -13 11 -13 5 0 7 8 3 18
-4 13 -3 14 6 6 8 -7 9 -18 2 -35 -5 -13 -10 -20 -10 -16 -1 12 -31 -19 -31
-32 0 -13 -48 -26 -58 -16 -13 13 -15 205 -2 220 20 24 59 19 65 -7z m65 -206
c-7 -12 -9 3 -9 53 l1 70 9 -53 c6 -34 5 -60 -1 -70z m-1092 -50 c4 -35 22
-45 22 -12 0 29 28 25 36 -6 6 -22 10 -24 35 -19 21 5 29 3 29 -8 0 -10 -17
-14 -67 -15 -102 -2 -130 5 -128 28 2 24 44 72 59 67 6 -2 12 -18 14 -35z
m1082 -97 c0 -8 -4 -15 -10 -15 -5 0 -7 7 -4 15 4 8 8 15 10 15 2 0 4 -7 4
-15z m503 -198 c129 -109 199 -182 228 -238 24 -48 40 -117 28 -125 -5 -3 -9
1 -9 8 0 25 -62 143 -98 188 -48 59 -75 83 -209 191 -62 50 -115 99 -118 109
-4 12 -12 16 -25 13 -11 -3 -20 0 -20 6 0 5 -7 8 -15 5 -8 -4 -15 -1 -15 6 0
8 8 10 23 7 12 -4 29 -2 36 3 11 6 23 -3 47 -34 17 -23 84 -86 147 -139z
m-1384 28 c28 -69 54 -119 61 -117 6 1 9 -2 6 -7 -8 -12 30 -87 135 -264 156
-261 161 -271 155 -317 -6 -46 -20 -70 -43 -70 -12 0 -14 8 -9 34 6 33 5 34
-31 41 -35 7 -36 8 -15 16 12 5 27 20 32 35 9 23 4 37 -34 103 -25 42 -52 85
-60 96 -15 19 -43 72 -144 270 -62 123 -112 252 -111 288 0 17 3 28 5 22 2 -5
26 -64 53 -130z m-163 20 c-8 -21 -54 -48 -71 -41 -14 5 -14 9 2 33 10 16 29
38 43 51 l25 22 3 -26 c2 -14 1 -32 -2 -39z m1344 45 c0 -5 -4 -10 -10 -10 -5
0 -10 5 -10 10 0 6 5 10 10 10 6 0 10 -4 10 -10z m-1167 -35 c-3 -9 -8 -14
-10 -11 -3 3 -2 9 2 15 9 16 15 13 8 -4z m-606 -87 c-3 -8 -6 -5 -6 6 -1 11 2
17 5 13 3 -3 4 -12 1 -19z m1913 -53 c7 -9 10 -19 6 -22 -8 -9 -38 9 -44 25
-5 17 23 15 38 -3z m-1383 -270 c30 -91 30 -96 13 -105 -46 -25 -76 -1 -79 62
-2 46 17 138 28 138 4 0 21 -43 38 -95z m773 31 c0 -8 -4 -17 -9 -21 -6 -3 -9
4 -8 15 1 23 17 28 17 6z m-577 -92 c4 9 13 16 21 16 22 0 10 -23 -19 -36 -28
-13 -35 -9 -35 20 0 19 1 19 13 2 12 -17 14 -17 20 -2z m671 -26 c12 -13 14
-22 6 -42 -5 -14 -14 -26 -20 -26 -5 0 -10 -6 -10 -13 0 -7 -6 -21 -13 -31
-17 -23 -76 -13 -109 18 -30 27 -36 102 -10 110 37 11 139 0 156 -16z m807
-133 c-20 -40 -43 -71 -63 -83 -36 -23 -53 -20 -39 6 5 9 7 26 5 38 -2 14 6
26 28 39 31 18 31 18 24 -1 -6 -16 -4 -15 17 4 13 13 30 42 38 65 11 35 14 38
17 18 2 -13 -10 -51 -27 -86z m-1348 23 c12 -20 13 -26 4 -22 -13 5 -57 74
-57 89 0 9 27 -26 53 -67z m1218 -41 c10 -3 19 -13 19 -24 0 -14 -2 -15 -9 -4
-5 7 -14 11 -19 7 -14 -9 -35 31 -25 47 5 9 8 8 11 -4 2 -10 12 -19 23 -22z
m-2021 -86 c20 -6 12 -9 -37 -15 -63 -8 -103 -2 -103 15 0 10 103 10 140 0z
m708 -2 c-17 -7 -38 -7 -60 0 -30 8 -28 9 27 9 50 0 56 -1 33 -9z m1447 -59
c23 -25 9 -42 -22 -29 -14 5 -23 17 -23 29 0 26 22 26 45 0z"/>
<path d="M8363 2685 c0 -27 2 -38 4 -22 2 15 2 37 0 50 -2 12 -4 0 -4 -28z"/>
<path d="M3017 3419 c-9 -6 -14 -15 -11 -21 4 -7 2 -8 -5 -4 -17 11 -101 -41
-101 -63 0 -21 -96 -88 -117 -83 -7 2 -10 -3 -7 -11 8 -23 -28 -31 -44 -10
-12 17 -15 17 -55 -6 -70 -40 -309 -211 -348 -248 -21 -19 -36 -40 -35 -47 1
-6 17 -33 36 -60 l34 -50 -55 -45 c-67 -57 -132 -124 -184 -189 -29 -36 -52
-54 -85 -65 -30 -10 -37 -15 -22 -16 12 -1 22 -4 22 -8 0 -12 -64 -53 -81 -53
-17 0 -99 -89 -99 -107 0 -10 -26 -13 -92 -14 l-93 -1 78 -12 c43 -7 82 -18
87 -26 4 -7 3 -27 -3 -44 -5 -17 -10 -61 -10 -98 0 -46 -3 -68 -11 -68 -7 0
-22 -9 -34 -20 -12 -11 -27 -20 -34 -20 -9 0 -9 -3 2 -10 12 -8 10 -10 -8 -10
-26 0 -82 -29 -82 -42 0 -4 -6 -8 -14 -8 -9 0 -12 -7 -9 -21 5 -16 2 -20 -13
-17 -13 2 -18 -2 -16 -14 1 -9 -7 -22 -18 -28 -11 -6 -20 -17 -20 -24 0 -21
49 -48 74 -42 15 4 25 -1 34 -14 16 -27 37 -25 105 9 31 15 57 25 57 20 0 -5
-9 -23 -20 -41 -24 -40 -25 -65 -4 -107 19 -38 41 -51 86 -51 19 0 39 -5 45
-11 7 -7 29 -15 50 -18 32 -5 39 -11 43 -36 6 -37 51 -65 77 -49 14 8 20 8 28
-2 16 -23 71 16 79 56 10 54 7 215 -5 227 -19 19 1 36 35 30 27 -4 35 -1 53
26 44 67 83 154 77 173 -4 14 -3 15 4 6 7 -11 10 -11 15 2 4 10 1 16 -8 16
-21 0 -18 17 4 23 19 5 38 81 44 170 l2 39 42 -6 c40 -5 41 -5 57 35 17 43 21
125 7 148 -7 10 -2 25 16 47 13 18 22 37 19 42 -9 15 206 233 293 297 69 50
79 61 70 77 -11 20 -3 41 12 36 6 -2 31 16 57 40 34 32 52 42 68 38 24 -6 65
21 153 100 l53 49 -31 59 c-41 74 -59 104 -89 141 -22 27 -29 29 -79 27 -30
-1 -60 -5 -67 -9 -6 -4 -5 1 3 10 15 19 13 21 -12 6z m2 -312 c-2 -2 -20 -14
-39 -26 l-35 -23 30 26 c17 14 34 26 39 26 5 0 7 -1 5 -3z m-984 -1018 c4 -6
5 -12 2 -15 -7 -7 -37 7 -37 17 0 13 27 11 35 -2z m-195 -49 c0 -5 -4 -10 -9
-10 -6 0 -13 5 -16 10 -3 6 1 10 9 10 9 0 16 -4 16 -10z m151 -16 c21 -26 2
-26 -27 0 -26 22 -27 24 -7 19 12 -3 28 -12 34 -19z m-281 -198 c0 -2 -7 -7
-16 -10 -8 -3 -12 -2 -9 4 6 10 25 14 25 6z m412 -76 c-2 -16 -6 -30 -8 -30
-2 0 -4 14 -4 30 0 17 4 30 8 30 5 0 7 -13 4 -30z m-34 -142 c9 -9 12 -9 12 0
0 7 5 12 10 12 6 0 10 -18 10 -40 0 -36 -2 -40 -25 -40 -14 0 -25 4 -25 9 0 5
-3 23 -6 40 -7 32 3 40 24 19z"/>
<path d="M1110 2426 c-45 -17 -149 -70 -175 -89 -19 -15 -19 -15 -1 -14 10 1
21 -4 24 -12 3 -9 0 -11 -8 -6 -8 5 -11 3 -8 -6 4 -11 -33 -59 -45 -59 -2 0
-28 -22 -58 -50 -30 -27 -58 -50 -63 -50 -4 0 -22 -11 -38 -26 -17 -14 -37
-23 -45 -20 -8 3 -11 1 -8 -5 4 -5 -4 -21 -17 -34 -14 -13 -31 -42 -38 -65 -7
-22 -15 -38 -18 -35 -3 2 -10 -3 -17 -12 -16 -21 -46 -26 -38 -6 4 10 8 11 13
3 5 -8 9 -8 13 2 3 9 -1 15 -10 15 -17 0 -57 -73 -48 -88 4 -5 1 -8 -6 -7 -14
4 -55 -93 -116 -274 -42 -125 -48 -138 -69 -138 l-24 0 -2 213 c-1 237 -2 227
-28 -238 -6 -121 -15 -224 -20 -229 -5 -5 -7 62 -4 148 3 93 1 156 -5 156 -5
0 -10 -53 -11 -117 -3 -214 -14 -299 -53 -411 -53 -149 -68 -236 -74 -430 -6
-171 -6 -172 15 -172 12 0 22 -5 22 -10 0 -6 11 -8 25 -4 15 4 25 2 25 -5 0
-6 -15 -11 -34 -11 -35 0 -62 -19 -29 -21 12 0 9 -4 -9 -11 -31 -11 -37 -32
-12 -42 8 -3 12 -10 9 -16 -10 -16 13 -74 55 -143 20 -34 40 -72 44 -84 l7
-23 463 0 462 0 30 31 c38 40 75 59 117 59 28 0 42 -9 76 -45 l41 -45 180 0
179 0 28 53 c38 70 56 71 129 7 32 -28 67 -53 78 -56 12 -2 113 -3 225 -2
l203 3 19 49 c22 58 34 68 72 60 37 -8 73 17 92 64 13 30 14 41 4 59 -7 13
-19 23 -28 24 -12 0 -11 2 4 8 25 10 -48 21 -154 22 -42 1 -107 5 -146 9 -38
3 35 4 163 2 214 -5 232 -4 226 11 -5 13 0 17 22 17 38 0 24 10 -21 16 -20 2
-43 10 -50 18 -12 11 -10 15 10 24 19 9 24 20 27 59 l3 47 60 4 c33 2 94 -2
135 -8 41 -7 88 -12 104 -12 28 1 28 -1 23 -39 -8 -64 -30 -78 -142 -95 -43
-6 -46 -8 -25 -15 14 -4 21 -8 15 -9 -5 -1 0 -5 11 -10 19 -8 112 -1 201 15
52 9 89 48 104 108 11 46 13 49 20 27 5 -15 7 17 5 75 -2 99 -30 220 -48 209
-4 -3 -5 2 -2 10 3 8 -2 27 -11 43 -9 15 -14 20 -11 11 9 -31 -2 -19 -30 30
-43 77 -128 202 -137 202 -4 0 -6 4 -3 9 12 18 -19 28 -62 19 -41 -9 -43 -11
-28 -27 9 -10 16 -22 16 -28 0 -6 4 -13 8 -15 10 -4 92 -237 92 -261 0 -29
-19 -19 -28 15 -10 34 -72 108 -91 108 -16 0 -13 -27 9 -98 11 -35 20 -70 20
-78 0 -21 -21 -17 -27 6 -9 32 -23 23 -23 -15 0 -38 -13 -45 -29 -17 -10 16
-12 16 -26 -2 -12 -16 -18 -17 -27 -8 -7 7 -26 12 -43 12 -19 0 -39 8 -50 20
-10 11 -26 20 -36 20 -10 0 -23 9 -29 20 -18 33 -42 25 -38 -12 2 -25 -1 -34
-14 -36 -10 -2 -18 1 -18 7 0 6 -6 11 -14 11 -8 0 -17 11 -20 25 -4 14 -11 23
-16 20 -6 -4 -10 7 -10 24 0 16 -5 33 -10 36 -6 4 -8 15 -5 26 4 11 2 19 -5
19 -6 0 -8 -4 -5 -10 3 -5 2 -10 -3 -10 -18 0 -21 13 -5 28 14 15 14 17 -6 26
-26 11 -27 30 -3 54 18 18 26 62 11 62 -5 0 -11 -11 -15 -24 -3 -14 -12 -27
-20 -30 -8 -3 -14 -17 -14 -31 0 -16 -6 -25 -16 -25 -9 0 -32 -10 -51 -22
l-35 -21 11 21 c7 12 27 28 46 36 26 11 32 19 28 34 -2 11 2 33 11 50 17 34
22 58 5 29 -12 -21 -29 -22 -29 -2 0 8 -7 15 -16 15 -14 0 -14 2 0 22 16 22
15 23 -26 33 l-43 10 -32 -44 c-18 -24 -36 -47 -39 -50 -14 -13 20 46 52 90
37 50 43 72 19 63 -8 -4 -21 -2 -28 4 -6 6 -48 11 -92 12 -125 3 -157 1 -150
-10 4 -6 -6 -10 -23 -10 -18 0 -38 -10 -57 -30 -25 -26 -28 -33 -17 -50 20
-32 14 -40 -28 -40 l-40 0 -1 88 c-1 48 0 92 1 97 1 6 -12 -3 -29 -19 -57 -55
-42 -19 19 45 52 55 58 64 40 67 -17 3 -20 11 -20 48 0 29 -5 46 -14 50 -19 7
-56 -13 -56 -30 0 -21 -24 -26 -127 -26 -88 0 -95 2 -100 21 -5 18 -11 20 -39
16 -37 -6 -57 9 -27 20 10 4 24 14 31 22 12 14 13 14 7 -4 -3 -11 -3 -16 1
-12 4 4 13 2 20 -4 10 -8 11 -6 1 15 -20 43 -57 43 -112 1 -16 -13 -17 -17 -6
-25 11 -6 5 -12 -22 -24 -21 -8 -40 -22 -43 -31 -4 -9 -13 -14 -20 -11 -19 7
-55 -41 -46 -63 4 -9 17 -30 30 -46 22 -27 23 -27 42 -10 13 11 20 14 20 6 0
-8 7 -10 20 -6 24 7 26 -7 5 -25 -11 -9 -15 -32 -15 -81 0 -81 -5 -84 -85 -44
-93 46 -110 61 -168 146 -66 96 -91 141 -50 90 65 -80 106 -125 99 -106 -5 11
-11 28 -13 38 -3 9 -9 17 -15 17 -5 0 -4 8 2 19 20 39 9 114 -15 104 -8 -2
-19 -2 -24 1 -14 9 -3 34 17 41 14 4 17 20 16 102 l-1 98 -36 14 c-20 7 -37
19 -37 25 0 6 13 56 29 111 15 55 24 102 20 103 -5 2 -9 9 -9 16 0 6 -20 34
-45 62 l-44 52 19 40 c31 64 142 158 245 207 96 46 166 65 243 65 26 0 54 5
62 10 11 7 7 9 -15 5 -16 -2 -64 -6 -105 -9 -41 -3 -86 -9 -100 -12 l-25 -6
24 21 c13 12 18 21 11 21 -7 0 -10 7 -6 15 10 27 -32 38 -128 32 -67 -3 -98
-1 -118 9 -16 8 -28 19 -28 23 0 5 12 14 28 19 15 6 20 10 12 11 -8 0 -31 -6
-50 -13z m-113 -80 c0 -8 -6 -12 -15 -9 -11 5 -11 7 0 14 7 5 13 9 14 9 0 0 1
-6 1 -14z m-45 -841 l52 -75 73 0 c47 0 72 -4 68 -10 -3 -5 -26 -10 -49 -10
-50 0 -75 -20 -51 -40 8 -7 15 -17 15 -24 0 -16 -54 53 -121 155 -71 107 -62
110 13 4z m803 -222 l-8 -28 -7 25 c-8 31 -1 55 13 41 5 -5 6 -21 2 -38z
m-334 15 c11 -21 11 -22 -4 -9 -19 15 -24 2 -6 -16 7 -7 7 -13 1 -17 -5 -3
-17 3 -27 14 -18 20 -18 21 1 35 24 18 21 19 35 -7z m269 12 c0 -5 -4 -10 -10
-10 -5 0 -10 5 -10 10 0 6 5 10 10 10 6 0 10 -4 10 -10z m554 -222 c-19 -38
-54 -84 -54 -73 0 10 60 105 66 105 3 0 -3 -15 -12 -32z m-1489 -7 c53 -24 81
-57 95 -110 34 -129 -75 -250 -200 -222 -44 10 -83 38 -74 52 3 5 0 17 -6 26
-11 17 -11 17 -6 1 3 -10 1 -18 -4 -18 -16 0 -22 46 -17 122 5 79 14 111 28
102 5 -3 9 1 9 8 0 22 66 55 115 57 11 0 38 -8 60 -18z m1275 -41 c0 -13 -7
-20 -20 -20 -13 0 -20 7 -20 20 0 13 7 20 20 20 13 0 20 -7 20 -20z m60 0 c0
-13 -7 -20 -20 -20 -13 0 -20 7 -20 20 0 13 7 20 20 20 13 0 20 -7 20 -20z
m-776 -648 c10 -16 -42 -27 -104 -21 l-65 6 67 1 c37 1 70 7 73 12 7 12 22 13
29 2z m-466 -11 c56 0 102 -5 102 -10 0 -5 -47 -12 -105 -16 -110 -8 -235 1
-235 15 0 9 61 16 110 14 14 -1 71 -2 128 -3z m-332 -16 c-14 -11 -47 -15
-118 -15 -119 0 -132 18 -15 23 45 1 98 4 117 5 33 1 34 0 16 -13z m919 5 c-3
-5 -17 -10 -31 -10 -13 0 -24 5 -24 10 0 6 14 10 31 10 17 0 28 -4 24 -10z
m203 3 c-21 -2 -55 -2 -75 0 -21 2 -4 4 37 4 41 0 58 -2 38 -4z m382 -3 c0 -6
-40 -10 -100 -10 -60 0 -100 4 -100 10 0 6 40 10 100 10 60 0 100 -4 100 -10z
m203 -67 c-7 -2 -21 -2 -30 0 -10 3 -4 5 12 5 17 0 24 -2 18 -5z m-658 -13
c-8 -13 -305 -13 -325 0 -10 6 43 10 158 10 113 0 171 -3 167 -10z"/>
<path d="M656 1050 c-15 -5 -36 -16 -46 -25 -11 -10 -23 -14 -29 -11 -5 4 -10
-2 -10 -11 0 -10 -4 -40 -9 -68 -11 -60 -4 -83 37 -118 39 -33 91 -43 131 -27
41 17 88 73 95 113 10 52 -25 113 -78 138 -47 21 -50 21 -91 9z m-26 -130 c0
-5 -4 -10 -10 -10 -5 0 -10 5 -10 10 0 6 5 10 10 10 6 0 10 -4 10 -10z"/>
<path d="M6930 2091 c-28 -5 -31 -8 -17 -14 11 -4 24 -4 30 0 7 5 39 11 72 14
l60 6 -55 0 c-30 0 -71 -2 -90 -6z"/>
<path d="M6778 2083 c7 -3 16 -2 19 1 4 3 -2 6 -13 5 -11 0 -14 -3 -6 -6z"/>
<path d="M7098 2083 c7 -3 16 -2 19 1 4 3 -2 6 -13 5 -11 0 -14 -3 -6 -6z"/>
<path d="M6723 2073 c-31 -12 -8 -23 45 -21 50 1 52 2 14 5 -23 2 -40 8 -37
14 7 10 -2 11 -22 2z"/>
<path d="M6664 2028 c16 -57 28 -282 24 -475 -2 -116 -2 -211 -1 -209 1 1 7
56 14 122 8 87 8 173 0 324 -12 222 -17 260 -33 260 -6 0 -8 -10 -4 -22z"/>
<path d="M6840 2040 c0 -6 18 -9 45 -7 64 6 68 17 7 17 -29 0 -52 -5 -52 -10z"/>
<path d="M6760 2021 c0 -6 5 -13 10 -16 6 -3 10 -2 10 4 0 5 12 12 28 14 22 3
20 4 -10 6 -21 0 -38 -3 -38 -8z"/>
<path d="M7008 2023 c7 -3 16 -2 19 1 4 3 -2 6 -13 5 -11 0 -14 -3 -6 -6z"/>
<path d="M2432 1975 c0 -16 2 -22 5 -12 2 9 2 23 0 30 -3 6 -5 -1 -5 -18z"/>
<path d="M7012 1945 c0 -16 2 -22 5 -12 2 9 2 23 0 30 -3 6 -5 -1 -5 -18z"/>
<path d="M2786 1928 c-9 -35 -7 -401 3 -416 4 -7 8 88 9 212 0 125 -1 226 -3
226 -1 0 -5 -10 -9 -22z"/>
<path d="M5982 1755 l-2 -201 -280 -1 c-271 -2 -280 -1 -280 18 0 10 -4 19
-10 19 -5 0 -10 -7 -10 -15 0 -8 -3 -14 -7 -14 -5 1 -10 0 -13 -1 -21 -8 -62
-5 -101 7 -45 15 -48 14 -68 -6 -12 -12 -19 -26 -16 -31 3 -5 1 -11 -5 -15
-16 -10 -13 -367 3 -384 10 -11 10 -14 0 -18 -10 -4 -13 -51 -13 -193 0 -141
3 -190 13 -194 10 -5 10 -7 0 -12 -16 -7 -19 -394 -3 -394 13 0 13 -33 0 -46
-14 -14 9 -154 25 -154 10 0 12 19 8 80 -5 69 -4 80 10 80 24 0 26 -9 15 -77
-9 -62 -1 -124 18 -130 15 -5 34 57 34 111 0 61 30 95 78 88 18 -2 35 -8 38
-13 8 -14 24 -10 24 6 0 8 5 15 11 15 8 0 9 -16 4 -53 -10 -67 -10 -142 -1
-190 8 -45 35 -50 71 -11 23 25 24 27 38 204 3 36 49 56 99 43 21 -6 38 -6 38
-2 0 5 11 9 24 9 20 0 25 -7 31 -43 l8 -42 7 40 c12 67 11 7 -1 -87 -9 -68 -9
-94 1 -118 12 -28 16 -30 66 -30 l53 0 6 44 c4 24 2 75 -4 114 -14 87 -14 95
-1 87 6 -3 10 1 10 9 0 12 10 16 35 16 49 0 58 -23 49 -120 -3 -43 -3 -95 0
-114 l7 -36 70 0 70 0 -2 98 c-1 62 -7 109 -17 132 -13 30 -16 132 -22 672 -4
350 -11 641 -14 647 -4 6 -23 9 -42 6 -29 -4 -34 -1 -35 18 -1 12 -5 103 -8
202 l-7 180 -2 -200z m-510 -237 c-8 -8 -12 -65 -12 -189 0 -98 -4 -180 -9
-183 -5 -3 -12 47 -15 112 -4 64 -9 147 -12 185 -5 63 -4 67 15 67 12 0 21 5
21 10 0 6 5 10 12 10 9 0 9 -3 0 -12z m286 -2 c-16 -12 -18 -35 -20 -192 -2
-146 -3 -157 -5 -59 -2 66 -8 124 -13 129 -7 7 -10 6 -10 -2 0 -13 -94 -17
-149 -6 -32 7 -32 7 -29 63 l3 56 88 3 c85 3 87 2 88 -20 1 -20 2 -21 6 -3 6
21 31 44 48 44 6 0 2 -6 -7 -13z m299 -12 c2 -10 0 -13 -3 -6 -3 6 -12 12 -20
12 -11 0 -14 -24 -15 -122 l-2 -123 -9 119 c-8 108 -7 119 9 132 23 17 37 13
40 -12z m-683 -59 c-2 -68 -22 -165 -35 -165 -5 0 -11 12 -14 28 -3 15 -12 50
-21 79 -8 29 -14 68 -12 88 2 35 3 36 43 33 l40 -3 -1 -60z m146 -117 c0 -100
-2 -179 -4 -177 -9 10 -14 359 -6 359 6 0 10 -73 10 -182z m300 172 c0 -5 5
-10 11 -10 5 0 7 5 4 10 -4 6 22 10 70 10 l76 0 -3 -27 c-3 -25 -7 -28 -48
-31 -25 -2 -64 -1 -87 3 -37 5 -43 10 -43 31 0 13 5 24 10 24 6 0 10 -4 10
-10z m-593 -92 c-2 -18 -4 -4 -4 32 0 36 2 50 4 33 2 -18 2 -48 0 -65z m830
-140 c-1 -40 -3 -8 -3 72 0 80 2 112 3 73 2 -40 2 -106 0 -145z m-650 110 c-2
-13 -4 -3 -4 22 0 25 2 35 4 23 2 -13 2 -33 0 -45z m243 -30 c0 -19 -2 -20
-10 -8 -13 19 -13 30 0 30 6 0 10 -10 10 -22z m367 -140 c-3 -7 -5 -2 -5 12 0
14 2 19 5 13 2 -7 2 -19 0 -25z m40 -50 c-3 -7 -5 -2 -5 12 0 14 2 19 5 13 2
-7 2 -19 0 -25z m-700 -4 c-3 -3 -12 -4 -19 -1 -8 3 -5 6 6 6 11 1 17 -2 13
-5z m102 -196 c-1 -111 -4 -141 -10 -108 -11 66 -11 260 1 260 6 0 10 -57 9
-152z m58 -5 c-2 -32 -3 -8 -3 52 0 61 1 87 3 58 2 -29 2 -78 0 -110z m220
-125 c-1 -51 -3 -10 -3 92 0 102 2 143 3 93 2 -51 2 -135 0 -185z m-510 -15
c-1 -43 -3 -8 -3 77 0 85 2 120 3 78 2 -43 2 -113 0 -155z m830 175 c-2 -13
-4 -5 -4 17 -1 22 1 32 4 23 2 -10 2 -28 0 -40z m0 -65 c-3 -10 -5 -4 -5 12 0
17 2 24 5 18 2 -7 2 -21 0 -30z m-808 -518 c7 -22 20 -48 29 -57 14 -17 13
-18 -21 -18 l-37 0 2 188 2 187 6 -130 c4 -72 13 -148 19 -170z m495 109 l6
-182 -32 -5 c-18 -3 -37 -1 -42 4 -6 6 -6 9 1 9 6 0 14 8 17 17 6 14 2 12 -17
-5 -22 -21 -67 -31 -67 -14 0 4 -12 12 -28 18 -16 6 -28 19 -29 30 -1 10 -3
26 -5 33 -4 19 39 41 83 41 39 0 60 -15 52 -36 -3 -8 0 -14 6 -14 6 0 11 -8
12 -17 0 -10 7 2 15 27 8 28 14 90 14 164 0 66 2 117 4 115 2 -2 6 -86 10
-185z m196 -55 c0 -4 7 -6 15 -3 26 10 16 -12 -10 -24 -29 -13 -31 -28 -8 -54
20 -22 33 -23 33 -2 0 11 6 14 20 9 15 -5 21 0 26 22 11 51 12 49 13 -14 1
-60 0 -63 -23 -63 -20 0 -23 4 -18 23 5 19 4 20 -11 8 -9 -7 -15 -16 -13 -20
3 -4 -8 -8 -24 -9 -21 -2 -29 3 -34 20 -5 15 -9 18 -13 10 -10 -24 -43 18 -43
55 0 30 3 33 30 33 20 0 30 5 30 15 0 9 6 12 15 9 8 -4 15 -10 15 -15z m-540
-26 c0 -16 7 -37 15 -47 14 -18 15 -18 21 -1 4 9 10 31 14 49 7 26 8 22 9 -26
1 -32 1 -61 1 -65 0 -5 -11 -9 -25 -11 -20 -3 -24 0 -18 14 4 11 3 15 -5 11
-6 -4 -13 1 -16 10 -3 11 -4 8 -3 -7 3 -41 -38 -40 -74 2 -50 59 -32 96 49 97
28 1 32 -2 32 -26z m150 -85 c9 -15 6 -18 -15 -18 -24 0 -25 2 -24 63 l1 62
14 -45 c7 -25 18 -53 24 -62z m225 -15 c-3 -13 -11 -23 -17 -23 -9 0 -9 3 0
12 7 7 13 39 14 72 2 60 2 60 5 12 3 -27 2 -60 -2 -73z m45 81 c0 -14 7 -38
15 -54 15 -29 15 -30 -10 -30 -24 0 -25 2 -25 61 0 37 4 58 10 54 6 -3 10 -17
10 -31z m247 -41 c-2 -16 -4 -5 -4 22 0 28 2 40 4 28 2 -13 2 -35 0 -50z m-2
-53 c-3 -5 -10 -10 -16 -10 -5 0 -9 5 -9 10 0 6 7 10 16 10 8 0 12 -4 9 -10z
m-535 -60 c0 -11 -4 -20 -10 -20 -5 0 -10 9 -10 20 0 11 5 20 10 20 6 0 10 -9
10 -20z m291 7 c-1 -4 -1 -19 -2 -34 0 -25 -1 -26 -9 -8 -12 29 -12 57 1 53 6
-2 10 -7 10 -11z"/>
<path d="M5552 1470 c0 -14 2 -19 5 -12 2 6 2 18 0 25 -3 6 -5 1 -5 -13z"/>
<path d="M5551 1424 c0 -11 3 -14 6 -6 3 7 2 16 -1 19 -3 4 -6 -2 -5 -13z"/>
<path d="M6773 1915 c0 -22 2 -30 4 -17 2 12 2 30 0 40 -3 9 -5 -1 -4 -23z"/>
<path d="M4278 1788 c-2 -73 -1 -135 2 -138 3 -3 3 -219 0 -480 -3 -261 -3
-529 0 -595 5 -109 7 -124 30 -152 31 -40 93 -54 125 -29 19 16 19 16 -7 5
-38 -16 -75 -5 -80 26 -3 14 0 25 6 26 89 9 106 5 106 -23 0 -18 2 -18 22 7
22 28 22 33 20 309 -1 155 -5 342 -7 416 -9 265 -7 484 4 488 15 5 14 22 -2
22 -10 0 -14 23 -14 93 -2 148 -2 157 -13 157 -6 0 -10 -48 -10 -125 l0 -125
-30 0 c-16 0 -30 -4 -30 -10 0 -5 6 -10 13 -10 8 0 7 -4 -3 -11 -12 -8 -8 -9
15 -7 l30 3 1 -175 1 -175 -7 155 c-4 85 -8 161 -9 168 0 6 -9 12 -18 12 -11
0 -14 -3 -7 -8 12 -8 11 -178 -1 -232 -5 -19 -9 -76 -9 -127 -1 -58 -6 -97
-13 -104 -18 -18 -36 36 -28 86 3 22 5 45 5 50 -1 6 -5 71 -9 145 -4 74 -11
146 -16 159 -6 17 -5 22 3 17 7 -4 12 -2 12 3 0 6 -8 11 -17 12 -14 0 -15 2
-3 6 31 12 40 43 11 43 -12 0 -18 7 -18 23 -2 235 -1 227 -27 227 l-25 0 -3
-132z m179 -575 c-3 -10 -5 -4 -5 12 0 17 2 24 5 18 2 -7 2 -21 0 -30z m-57
-302 c0 -6 -4 -13 -10 -16 -5 -3 -10 1 -10 9 0 9 5 16 10 16 6 0 10 -4 10 -9z"/>
<path d="M5211 1864 c0 -11 3 -14 6 -6 3 7 2 16 -1 19 -3 4 -6 -2 -5 -13z"/>
<path d="M2431 1755 c-3 -92 -5 -102 -12 -65 -5 33 -6 21 -3 -40 2 -49 0 -77
-5 -65 -6 14 -10 2 -14 -45 -4 -35 -5 -66 -2 -68 3 -3 5 6 5 21 0 14 4 28 8
31 5 3 7 -9 6 -27 -2 -18 3 0 12 38 9 47 13 113 11 200 l-3 130 -3 -110z"/>
<path d="M4433 1760 c0 -47 2 -66 4 -42 2 23 2 61 0 85 -2 23 -4 4 -4 -43z"/>
<path d="M4820 1751 c0 -47 -4 -81 -10 -81 -6 0 -10 27 -10 62 0 76 -7 73 -12
-5 -2 -48 -6 -57 -22 -57 -15 0 -16 -3 -6 -15 7 -8 9 -16 4 -16 -5 -1 5 -4 21
-8 28 -6 30 -8 24 -41 l-6 -35 -2 33 c-1 24 -6 32 -18 31 -10 0 -13 -2 -8 -5
10 -4 4 -207 -10 -304 -3 -25 -6 -78 -6 -117 0 -40 -4 -73 -9 -73 -5 0 -11 -8
-13 -17 -3 -10 -5 -2 -6 17 -1 19 -4 55 -5 80 -2 25 -6 128 -11 230 -5 114
-12 188 -19 192 -7 5 -4 8 7 8 10 0 15 5 12 10 -3 6 2 10 12 10 12 1 8 5 -12
15 -16 7 -24 14 -17 14 8 1 12 22 12 72 l0 70 -37 -3 -38 -3 -5 -80 c-3 -44
-3 -81 0 -83 3 -1 4 -102 3 -225 -6 -663 -3 -950 8 -982 13 -35 62 -66 102
-64 21 1 20 1 -3 8 -22 6 -55 49 -45 59 9 9 108 2 120 -8 9 -7 16 -5 26 6 11
13 14 48 12 143 -1 69 -5 334 -9 588 -6 354 -4 465 5 477 8 9 8 15 1 18 -5 1
-10 35 -11 76 -1 40 -5 75 -10 78 -5 3 -9 -31 -9 -75z m-121 27 c-1 -18 -5
-46 -9 -63 -6 -24 -8 -17 -9 33 0 35 3 62 9 62 6 0 9 -15 9 -32z m121 -375 c0
-64 -3 -114 -6 -110 -10 10 -14 227 -3 227 5 0 9 -50 9 -117z"/>
<path d="M4785 1810 c3 -5 8 -10 11 -10 2 0 4 5 4 10 0 6 -5 10 -11 10 -5 0
-7 -4 -4 -10z"/>
<path d="M5794 1690 c0 -69 1 -97 3 -62 2 34 2 90 0 125 -2 34 -3 6 -3 -63z"/>
<path d="M3611 1734 c0 -11 3 -14 6 -6 3 7 2 16 -1 19 -3 4 -6 -2 -5 -13z"/>
<path d="M5823 1715 c0 -22 2 -30 4 -17 2 12 2 30 0 40 -3 9 -5 -1 -4 -23z"/>
<path d="M6784 1590 c0 -85 2 -120 3 -77 2 42 2 112 0 155 -1 42 -3 7 -3 -78z"/>
<path d="M3785 1695 c-12 -29 -22 -33 -73 -28 -38 3 -43 2 -29 -7 9 -6 15 -15
12 -21 -4 -5 3 -9 14 -9 12 0 21 5 21 10 0 14 19 12 35 -4 10 -10 14 -59 15
-212 1 -199 -5 -268 -21 -258 -8 5 -10 39 -10 204 0 46 -3 68 -8 56 -7 -19 -8
-19 -13 2 -4 12 -5 60 -5 107 2 84 2 85 -23 85 -17 0 -21 -3 -12 -8 9 -7 12
-57 11 -213 -2 -186 -3 -200 -15 -155 -7 27 -14 84 -16 126 -2 43 -6 76 -10
74 -4 -2 -8 39 -10 91 -2 52 -1 95 2 95 4 0 4 16 2 35 -3 29 -8 35 -28 35 -13
0 -24 -6 -24 -12 0 -7 -2 -128 -4 -268 -3 -140 -5 -411 -6 -603 -1 -332 0
-349 20 -394 13 -30 24 -43 28 -36 5 8 13 9 22 3 22 -14 62 -11 90 6 18 11 19
13 5 9 -75 -24 -105 -14 -105 36 0 29 14 46 25 29 3 -5 11 -10 16 -10 6 0 8 4
5 8 -2 4 5 8 17 8 22 0 51 -23 59 -47 3 -9 11 -4 24 16 18 28 19 48 16 435 -2
223 -5 483 -7 579 -2 103 0 182 6 193 6 11 6 18 0 18 -5 0 -11 10 -14 23 -3
21 -4 21 -12 2z m-128 -397 c-2 -13 -4 -3 -4 22 0 25 2 35 4 23 2 -13 2 -33 0
-45z"/>
<path d="M3693 1683 c9 -2 25 -2 35 0 9 3 1 5 -18 5 -19 0 -27 -2 -17 -5z"/>
<path d="M3935 1660 c-3 -5 0 -10 9 -10 8 0 17 -6 19 -12 3 -7 6 -3 6 10 1 22
-22 31 -34 12z"/>
<path d="M4120 1661 c0 -11 21 -19 38 -14 21 8 13 23 -13 23 -14 0 -25 -4 -25
-9z"/>
<path d="M5822 1610 c0 -14 2 -19 5 -12 2 6 2 18 0 25 -3 6 -5 1 -5 -13z"/>
<path d="M4153 1545 c0 -44 2 -61 4 -37 2 23 2 59 0 80 -2 20 -4 1 -4 -43z"/>
<path d="M3958 1530 c-11 -120 -17 -330 -20 -710 l-3 -355 29 -37 c32 -42 70
-56 42 -16 -25 36 -20 50 17 47 18 -2 38 0 45 4 7 5 21 -1 34 -13 20 -18 21
-22 6 -36 -9 -9 -31 -20 -49 -24 -32 -8 -33 -8 -6 -9 19 -1 40 10 68 37 l39
39 0 498 c0 274 -1 499 -3 500 -1 2 -22 -1 -47 -5 -25 -4 -37 -8 -28 -9 12 -1
18 -12 21 -43 l4 -43 1 43 c1 23 7 42 12 42 12 0 12 -69 1 -125 -8 -37 -9 -38
-10 -9 0 17 -7 37 -14 43 -11 9 -17 3 -27 -29 -7 -22 -17 -40 -21 -40 -4 0
-17 13 -28 29 -24 34 -30 130 -8 132 6 0 0 5 -15 10 -26 10 -27 14 -30 82 l-3
72 -7 -75z"/>
<path d="M5521 1584 c0 -11 3 -14 6 -6 3 7 2 16 -1 19 -3 4 -6 -2 -5 -13z"/>
<path d="M2793 1474 c-7 -12 -11 -23 -8 -25 2 -2 5 -30 7 -62 3 -51 5 -55 16
-40 12 16 13 13 7 -23 -5 -30 -2 -44 9 -54 9 -7 16 -20 16 -29 1 -15 1 -15 10
0 10 17 -9 134 -26 161 -5 7 -11 31 -14 53 -5 37 -7 38 -17 19z"/>
<path d="M2381 1444 c0 -11 3 -14 6 -6 3 7 2 16 -1 19 -3 4 -6 -2 -5 -13z"/>
<path d="M3458 1407 c-11 -27 -22 -705 -14 -829 6 -87 11 -108 23 -108 13 0
15 15 11 102 -4 69 -9 103 -18 106 -9 3 -9 6 1 13 12 7 11 9 -1 9 -11 0 -12 2
-2 8 9 7 12 86 10 363 -2 195 -6 346 -10 336z"/>
<path d="M2360 1365 l-11 -33 -101 -1 c-138 -2 -139 -11 -2 -11 60 0 134 -3
164 -5 30 -3 49 -2 43 1 -18 8 -16 27 1 21 8 -3 16 2 19 13 5 19 -1 22 -70 40
-30 7 -33 6 -43 -25z"/>
<path d="M2852 1365 c0 -11 3 -29 8 -40 11 -25 11 1 0 35 -6 20 -8 21 -8 5z"/>
<path d="M6666 1289 c-4 -23 -5 -44 -2 -46 2 -2 7 14 11 37 4 23 5 43 2 46 -2
3 -7 -14 -11 -37z"/>
<path d="M2023 1293 c15 -2 37 -2 50 0 12 2 0 4 -28 4 -27 0 -38 -2 -22 -4z"/>
<path d="M4976 1178 c-4 -51 -2 -199 2 -328 l9 -235 1 328 c1 180 0 327 -2
327 -2 0 -7 -42 -10 -92z"/>
<path d="M6751 1188 c-1 -10 6 -18 14 -18 8 0 15 8 15 18 0 13 -2 14 -9 3 -7
-11 -9 -11 -14 0 -4 10 -6 9 -6 -3z"/>
<path d="M2910 1184 c0 -6 7 -19 16 -30 14 -18 14 -18 3 6 -14 31 -19 36 -19
24z"/>
<path d="M2289 1109 c-8 -17 -8 -20 2 -17 7 2 13 12 15 21 3 23 -3 21 -17 -4z"/>
<path d="M2940 1121 c0 -6 4 -13 10 -16 6 -3 7 1 4 9 -7 18 -14 21 -14 7z"/>
<path d="M2386 1055 c-30 -23 -15 -27 65 -17 64 8 68 10 27 11 -26 0 -50 6
-53 11 -8 13 -16 12 -39 -5z"/>
<path d="M6555 519 c-4 -6 -5 -12 -2 -15 2 -3 7 2 10 11 7 17 1 20 -8 4z"/>
<path d="M3181 404 c0 -11 3 -14 6 -6 3 7 2 16 -1 19 -3 4 -6 -2 -5 -13z"/>
<path d="M4786 404 c-17 -12 -17 -14 -4 -14 9 0 20 5 23 11 11 17 2 18 -19 3z"/>
<path d="M6597 407 c-11 -29 -9 -43 4 -30 6 6 9 19 7 29 -3 18 -4 18 -11 1z"/>
<path d="M3458 343 c7 -3 16 -2 19 1 4 3 -2 6 -13 5 -11 0 -14 -3 -6 -6z"/>
<path d="M3445 280 c-3 -5 1 -10 9 -10 8 0 18 5 21 10 3 6 -1 10 -9 10 -8 0
-18 -4 -21 -10z"/>
<path d="M3010 261 c0 -6 5 -11 11 -11 7 0 5 -10 -5 -25 -19 -29 -21 -75 -3
-99 12 -17 15 -17 55 -1 46 19 82 57 82 86 0 10 -12 26 -26 35 -30 20 -114 31
-114 15z"/>
</g>
</svg>
